# xmcd CD database file generated by OrangeCD 6.4
#
# Track frame offsets:
#	183
#	19358
#	45810
#	62423
#	88580
#	104825
#	127780
#	142710
#	162363
#	173665
#
# Disc length: 2592 seconds
#
# Revision: 0
# Processed by: cddbd v1.5.2PL0 Copyright (c) Steve Scherf et al.
# Submitted via: OrangeCD 6.4
#
DISCID=730a1e0a
DTITLE=Calvin Russell - Calvin Russel
DYEAR=1997
DGENRE=
TTITLE0=Let the music play
TTITLE1=Nothin' can save me
TTITLE2=I want to change the world
TTITLE3=Desperation
TTITLE4=Lovin' you
TTITLE5=Mr. Mudd and Mr. Gold
TTITLE6=My love is so
TTITLE7=Time flies
TTITLE8=Cut the silver strings
TTITLE9=Drive by
EXTD=
EXTT0=
EXTT1=
EXTT2=
EXTT3=
EXTT4=
EXTT5=
EXTT6=
EXTT7=
EXTT8=
EXTT9=
PLAYORDER=
